<?xml version="1.0" encoding="UTF-8"?>
<svg xmlns="http://www.w3.org/2000/svg" xmlns:xlink="http://www.w3.org/1999/xlink" width="24px" height="24px" viewBox="0 0 24 24" version="1.1">
<g id="surface1">
<path style="fill:none;stroke-width:1.5;stroke-linecap:butt;stroke-linejoin:miter;stroke:rgb(16.078431%,17.647059%,19.607843%);stroke-opacity:1;stroke-miterlimit:10;" d="M 21.96875 18.328125 C 21.96875 18.691406 21.890625 19.058594 21.71875 19.421875 C 21.550781 19.78125 21.328125 20.121094 21.039062 20.441406 C 20.550781 20.980469 20.011719 21.371094 19.398438 21.621094 C 18.800781 21.871094 18.148438 22 17.449219 22 C 16.429688 22 15.339844 21.761719 14.191406 21.269531 C 13.039062 20.78125 11.890625 20.121094 10.75 19.289062 C 9.601562 18.449219 8.511719 17.519531 7.46875 16.488281 C 6.441406 15.449219 5.511719 14.359375 4.679688 13.21875 C 3.859375 12.078125 3.199219 10.941406 2.71875 9.808594 C 2.238281 8.671875 2 7.578125 2 6.539062 C 2 5.859375 2.121094 5.210938 2.359375 4.609375 C 2.601562 4 2.980469 3.441406 3.511719 2.941406 C 4.148438 2.308594 4.851562 2 5.589844 2 C 5.871094 2 6.148438 2.058594 6.398438 2.179688 C 6.660156 2.300781 6.890625 2.480469 7.070312 2.738281 L 9.390625 6.011719 C 9.570312 6.261719 9.699219 6.488281 9.789062 6.710938 C 9.878906 6.921875 9.929688 7.128906 9.929688 7.320312 C 9.929688 7.558594 9.859375 7.800781 9.71875 8.03125 C 9.589844 8.261719 9.398438 8.5 9.160156 8.738281 L 8.398438 9.53125 C 8.289062 9.640625 8.238281 9.769531 8.238281 9.929688 C 8.238281 10.011719 8.25 10.078125 8.269531 10.160156 C 8.300781 10.238281 8.328125 10.300781 8.351562 10.359375 C 8.53125 10.691406 8.839844 11.121094 9.28125 11.640625 C 9.730469 12.160156 10.210938 12.691406 10.730469 13.21875 C 11.269531 13.75 11.789062 14.238281 12.320312 14.691406 C 12.839844 15.128906 13.269531 15.429688 13.609375 15.609375 C 13.660156 15.628906 13.71875 15.660156 13.789062 15.691406 C 13.871094 15.71875 13.949219 15.730469 14.039062 15.730469 C 14.210938 15.730469 14.339844 15.671875 14.449219 15.558594 L 15.210938 14.808594 C 15.460938 14.558594 15.699219 14.371094 15.929688 14.25 C 16.160156 14.109375 16.390625 14.039062 16.640625 14.039062 C 16.828125 14.039062 17.03125 14.078125 17.25 14.171875 C 17.46875 14.261719 17.699219 14.390625 17.949219 14.558594 L 21.261719 16.910156 C 21.519531 17.089844 21.699219 17.300781 21.808594 17.550781 C 21.910156 17.800781 21.96875 18.050781 21.96875 18.328125 Z M 21.96875 18.328125 "/>
</g>
</svg>
