<?xml version="1.0" encoding="UTF-8"?>
<svg xmlns="http://www.w3.org/2000/svg" xmlns:xlink="http://www.w3.org/1999/xlink" width="24px" height="24px" viewBox="0 0 24 24" version="1.1">
<g id="surface1">
<path style=" stroke:none;fill-rule:evenodd;fill:rgb(0%,0%,0%);fill-opacity:1;" d="M 12 1.410156 C 6.160156 1.410156 1.410156 6.160156 1.410156 12 C 1.410156 17.839844 6.160156 22.589844 12 22.589844 C 17.839844 22.589844 22.589844 17.839844 22.589844 12 C 22.589844 6.160156 17.839844 1.410156 12 1.410156 M 12 24 C 5.382812 24 0 18.617188 0 12 C 0 5.382812 5.382812 0 12 0 C 18.617188 0 24 5.382812 24 12 C 24 18.617188 18.617188 24 12 24 M 17.222656 16.800781 L 11.292969 12.351562 L 11.292969 4.941406 L 12.707031 4.941406 L 12.707031 11.648438 L 18.070312 15.667969 Z M 17.222656 16.800781 "/>
</g>
</svg>
