<?xml version="1.0" encoding="UTF-8"?>
<svg xmlns="http://www.w3.org/2000/svg" xmlns:xlink="http://www.w3.org/1999/xlink" width="24px" height="24px" viewBox="0 0 24 24" version="1.1">
<g id="surface1">
<path style=" stroke:none;fill-rule:evenodd;fill:rgb(5.882353%,9.019608%,16.078431%);fill-opacity:1;" d="M 8.394531 3 L 15.601562 3 C 16.707031 3 17.59375 3 18.3125 3.058594 C 19.054688 3.121094 19.703125 3.25 20.304688 3.5625 C 21.21875 4.039062 21.960938 4.78125 22.4375 5.695312 C 22.75 6.296875 22.878906 6.945312 22.941406 7.6875 C 23 8.40625 23 9.292969 23 10.398438 L 23 13.601562 C 23 14.707031 23 15.59375 22.941406 16.3125 C 22.878906 17.054688 22.75 17.703125 22.4375 18.304688 C 21.960938 19.21875 21.21875 19.960938 20.304688 20.4375 C 19.703125 20.75 19.054688 20.878906 18.3125 20.941406 C 17.59375 21 16.707031 21 15.601562 21 L 8.398438 21 C 7.292969 21 6.40625 21 5.6875 20.941406 C 4.945312 20.878906 4.296875 20.75 3.695312 20.4375 C 2.78125 19.960938 2.039062 19.21875 1.5625 18.304688 C 1.25 17.703125 1.121094 17.054688 1.058594 16.3125 C 1 15.59375 1 14.707031 1 13.601562 L 1 10.398438 C 1 9.292969 1 8.40625 1.058594 7.6875 C 1.121094 6.945312 1.25 6.296875 1.5625 5.695312 C 2.039062 4.78125 2.78125 4.039062 3.695312 3.5625 C 4.296875 3.25 4.945312 3.121094 5.6875 3.058594 C 6.40625 3 7.292969 3 8.394531 3 Z M 5.253906 5.128906 C 6.101562 5.328125 6.890625 5.75 7.53125 6.363281 L 10.46875 9.160156 C 10.875 9.546875 11.136719 9.796875 11.351562 9.96875 C 11.558594 10.136719 11.652344 10.179688 11.707031 10.195312 C 11.898438 10.253906 12.101562 10.253906 12.292969 10.195312 C 12.347656 10.179688 12.441406 10.136719 12.648438 9.96875 C 12.863281 9.796875 13.125 9.546875 13.53125 9.160156 L 16.46875 6.363281 C 17.109375 5.75 17.898438 5.328125 18.746094 5.128906 C 18.578125 5.097656 18.382812 5.074219 18.148438 5.054688 C 17.519531 5 16.714844 5 15.558594 5 L 8.441406 5 C 7.285156 5 6.480469 5 5.851562 5.054688 C 5.617188 5.074219 5.421875 5.097656 5.253906 5.128906 Z M 20.8125 7 L 19.875 7 C 19.121094 7 18.394531 7.289062 17.847656 7.808594 L 14.882812 10.636719 C 14.511719 10.988281 14.191406 11.292969 13.90625 11.527344 C 13.601562 11.769531 13.277344 11.984375 12.878906 12.105469 C 12.304688 12.28125 11.695312 12.28125 11.121094 12.105469 C 10.722656 11.984375 10.398438 11.769531 10.09375 11.527344 C 9.808594 11.292969 9.488281 10.988281 9.117188 10.636719 L 6.152344 7.808594 C 5.605469 7.289062 4.878906 7 4.125 7 L 3.1875 7 C 3.128906 7.214844 3.082031 7.488281 3.054688 7.851562 C 3 8.480469 3 9.285156 3 10.441406 L 3 13.558594 C 3 14.714844 3 15.519531 3.054688 16.148438 C 3.105469 16.761719 3.199219 17.117188 3.335938 17.382812 C 3.621094 17.929688 4.070312 18.378906 4.617188 18.664062 C 4.882812 18.800781 5.238281 18.894531 5.851562 18.945312 C 6.480469 19 7.285156 19 8.441406 19 L 15.558594 19 C 16.714844 19 17.519531 19 18.148438 18.945312 C 18.761719 18.894531 19.117188 18.800781 19.382812 18.664062 C 19.929688 18.378906 20.378906 17.929688 20.664062 17.382812 C 20.800781 17.117188 20.894531 16.761719 20.945312 16.148438 C 21 15.519531 21 14.714844 21 13.558594 L 21 10.441406 C 21 9.285156 21 8.480469 20.945312 7.851562 C 20.917969 7.488281 20.871094 7.214844 20.8125 7 Z M 20.8125 7 "/>
</g>
</svg>
